<?xml version="1.0" encoding="UTF-8"?><svg id="Layer_1" xmlns="http://www.w3.org/2000/svg" viewBox="0 0 478 433.06"><defs><style>.cls-1{letter-spacing:-.02em;}.cls-2{fill:#0087cd;}.cls-3{fill:#f0e8d4;}.cls-4{fill:#fdca50;}.cls-5{fill:#d22f2c;}.cls-6{fill:#258943;}.cls-7{letter-spacing:0em;}.cls-8{letter-spacing:0em;}.cls-9{fill:#bed633;}.cls-9,.cls-10{font-family:Cheee-Oldskool, Cheee;font-size:100.62px;}.cls-10{fill:#b6692c;}.cls-11{letter-spacing:-.01em;}.cls-12{letter-spacing:-.01em;}.cls-13{fill:#1e6088;}.cls-13,.cls-14{font-family:OwnersNarrow-XBlackItalic, 'Owners Narrow';font-size:96.62px;}.cls-14{fill:#f2e9d4;}</style></defs><g><rect class="cls-6" x="14" y="215.05" width="450" height="102" transform="translate(478 532.11) rotate(180)"/><text class="cls-9" transform="translate(29.1 235.48) scale(1 -1)"><tspan class="cls-11" x="0" y="0">W</tspan><tspan class="cls-1" x="83.42" y="0">W</tspan><tspan class="cls-7" x="165.93" y="0">MAIRS</tspan></text></g><g><rect class="cls-4" x="14" y="112.85" width="450" height="102"/><text class="cls-10" transform="translate(29.1 194.43)"><tspan class="cls-11" x="0" y="0">W</tspan><tspan class="cls-1" x="83.42" y="0">W</tspan><tspan class="cls-7" x="165.93" y="0">MAIRS</tspan></text></g><g><rect class="cls-5" x="14" y="317.05" width="450" height="102" transform="translate(478 736.11) rotate(180)"/><text class="cls-13" transform="translate(21.64 337.42) scale(1 -1)"><tspan class="cls-12" x="0" y="0">W</tspan><tspan class="cls-8" x="77.78" y="0">WMAIRS</tspan></text></g><g><rect class="cls-2" x="14" y="14" width="450" height="102"/><text class="cls-14" transform="translate(21.64 95.64)"><tspan class="cls-12" x="0" y="0">W</tspan><tspan class="cls-8" x="77.78" y="0">WMAIRS</tspan></text></g><path class="cls-3" d="M464,14V419.06H14V14H464M478,0H0V433.06H478V0h0Z"/></svg>
